
<svg width="1428" height="403" viewBox="0 0 1428 403" fill="none" xmlns="http://www.w3.org/2000/svg">
  <path d="M10.5515 383.333C9.81099 379.885 9.82705 205.582 10.5344 202.385C11.254 202.26 12.0522 202.074 12.8608 201.996C13.5794 201.927 14.3097 201.975 15.0348 201.975C65.9162 201.975 116.798 201.953 167.679 201.993C178.73 202.001 189.622 203.356 200.216 206.646C205.434 208.266 210.392 210.466 214.97 213.48C226.859 221.306 232.893 232.429 233.559 246.551C233.782 251.28 233.47 255.983 232.356 260.596C230.18 269.608 225.367 276.695 217.115 281.234C216.514 281.565 215.955 281.972 214.89 282.655C216.212 282.938 216.985 283.149 217.772 283.265C229.58 285.01 240.425 289.194 250.062 296.273C257.614 301.82 263.522 308.707 266.774 317.664C269.585 325.407 269.455 333.341 268.236 341.288C265.843 356.873 257.058 367.683 242.966 374.386C234.135 378.586 224.725 380.695 215.107 382.001C206.711 383.142 198.262 383.539 189.796 383.54C131.543 383.55 73.2888 383.547 15.0351 383.536C13.5057 383.536 11.9763 383.4 10.5515 383.333ZM68.5671 337.511C70.3965 337.576 71.8142 337.669 73.232 337.669C109.716 337.677 146.201 337.687 182.685 337.654C185.456 337.651 188.249 337.497 190.989 337.112C192.998 336.83 195.01 336.232 196.892 335.459C200.479 333.985 202.662 331.241 203.528 327.418C205.319 319.507 201.448 312.797 193.682 310.584C189.816 309.482 185.83 309.287 181.833 309.287C156.221 309.288 130.61 309.288 104.998 309.288C94.2461 309.288 83.4941 309.28 72.7421 309.298C71.4599 309.3 70.1778 309.441 68.5478 309.539C68.489 318.902 68.4822 327.923 68.5671 337.511ZM69.0073 273.235C70.3197 273.3 71.726 273.428 73.1323 273.429C99.9396 273.44 126.747 273.444 153.554 273.425C155.724 273.423 157.925 273.435 160.057 273.095C162.419 272.718 164.811 272.176 167.026 271.293C171.19 269.633 173.439 266.32 174.047 261.917C174.211 260.728 174.228 259.506 174.18 258.304C173.968 252.909 171.288 249.027 166.151 247.46C163.424 246.628 160.467 246.203 157.612 246.194C129.235 246.104 100.858 246.137 72.4807 246.147C71.3051 246.147 70.1296 246.265 69.0391 246.323C68.3495 249.534 68.3228 269.684 69.0073 273.235Z" fill="white"/>
  <path d="M1417.92 322.198C1415.95 322.262 1414.4 322.357 1412.86 322.357C1360.04 322.364 1307.22 322.362 1254.41 322.37C1252.86 322.37 1251.32 322.468 1249.53 322.529C1249.69 323.649 1249.72 324.466 1249.93 325.236C1252.35 334.308 1257.92 340.801 1266.26 344.988C1272.16 347.952 1278.48 349.563 1284.97 350.429C1300.9 352.551 1316.78 352.518 1332.57 349.173C1338.15 347.99 1343.6 346.32 1348.59 343.538C1351.63 341.842 1354.59 339.889 1357.24 337.639C1358.95 336.178 1360.4 335.92 1362.46 336.456C1369.59 338.312 1376.77 340.007 1383.93 341.772C1392.14 343.797 1400.35 345.825 1408.56 347.872C1409.56 348.122 1410.54 348.498 1411.85 348.919C1411.08 350.315 1410.54 351.377 1409.92 352.385C1405.66 359.311 1399.9 364.74 1393.11 369.124C1385.32 374.154 1376.8 377.512 1367.91 379.987C1358.57 382.585 1349.04 384.23 1339.41 385.19C1327.62 386.363 1315.83 387.368 1303.96 387.151C1287.99 386.86 1272.09 385.715 1256.38 382.761C1245.88 380.788 1235.73 377.704 1226.24 372.674C1209.51 363.809 1199.08 350.128 1195.12 331.638C1192.02 317.142 1192.06 302.585 1195.31 288.109C1199.23 270.626 1209.02 257.439 1224.71 248.685C1234.96 242.959 1246.07 239.753 1257.53 237.595C1271.23 235.015 1285.09 234.091 1299 233.908C1313.51 233.718 1328.01 233.919 1342.45 235.469C1354.74 236.787 1366.86 238.898 1378.46 243.361C1385.97 246.25 1392.9 250.109 1398.85 255.605C1406.43 262.615 1411.22 271.293 1414.06 281.126C1416.55 289.774 1417.55 298.646 1417.88 307.608C1418.02 311.229 1418.06 314.854 1418.11 318.477C1418.12 319.545 1418 320.613 1417.92 322.198ZM1360.74 292.469C1360.85 292.029 1360.99 291.78 1360.94 291.576C1360.77 290.877 1360.59 290.171 1360.32 289.508C1357.99 283.803 1353.95 279.616 1348.66 276.576C1344.01 273.902 1338.99 272.185 1333.74 271.192C1316.25 267.882 1298.69 267.978 1281.14 270.646C1274.79 271.612 1268.67 273.503 1263.09 276.844C1257.85 279.982 1253.93 284.27 1251.65 289.974C1251.35 290.714 1251.27 291.54 1251.08 292.334C1254.66 293.013 1338.77 293.334 1358.42 292.77C1359.22 292.747 1360.02 292.566 1360.74 292.469Z" fill="white"/>
  <path d="M512.048 322.523C513.35 328.761 515.682 333.809 519.661 338.076C524.881 343.674 531.519 346.81 538.782 348.572C543.698 349.765 548.733 350.671 553.767 351.134C567.421 352.389 581.052 352.205 594.544 349.347C600.363 348.115 606.072 346.473 611.279 343.569C614.424 341.816 617.388 339.688 620.236 337.474C621.587 336.425 622.681 335.82 624.443 336.259C640.392 340.236 656.36 344.136 672.317 348.081C672.989 348.247 673.609 348.625 674.55 349.032C673.887 350.247 673.368 351.308 672.752 352.309C668.424 359.342 662.572 364.848 655.654 369.274C647.84 374.273 639.302 377.586 630.411 380.062C620.128 382.924 609.624 384.556 599.015 385.522C588.184 386.508 577.342 387.399 566.447 387.146C549.388 386.75 532.401 385.582 515.663 382.038C507.719 380.356 500.001 377.929 492.628 374.485C473.714 365.653 461.779 351.204 457.685 330.618C454.819 316.21 454.898 301.774 458.253 287.439C462.746 268.246 474.273 254.752 491.96 246.358C502.317 241.443 513.304 238.674 524.568 236.853C536.886 234.862 549.301 234.068 561.759 233.908C576.268 233.721 590.77 233.919 605.218 235.464C617.508 236.779 629.634 238.89 641.234 243.358C649.674 246.609 657.347 251.079 663.696 257.638C671.613 265.818 675.904 275.813 678.244 286.761C680.608 297.825 680.949 309.053 680.737 320.314C680.728 320.783 680.566 321.248 680.44 321.894C679.625 322.048 678.829 322.28 678.02 322.332C676.816 322.409 675.604 322.362 674.395 322.362C622.173 322.363 569.951 322.362 517.729 322.369C516.058 322.369 514.387 322.457 512.048 322.523ZM623.699 292.38C623.726 291.83 623.785 291.584 623.738 291.36C623.664 291.009 623.526 290.669 623.402 290.33C621.273 284.536 617.387 280.209 612.183 277.019C606.316 273.423 599.816 271.549 593.099 270.529C576.994 268.082 560.854 268.077 544.745 270.504C538.146 271.498 531.776 273.351 525.965 276.785C521.048 279.691 517.246 283.63 514.894 288.876C514.418 289.939 514.113 291.079 513.718 292.213C516.726 292.917 620.021 293.024 623.699 292.38Z" fill="white"/>
  <path d="M931.623 323.141C929.721 323.209 928.061 323.32 926.401 323.32C873.694 323.329 820.987 323.327 768.279 323.331C766.744 323.331 765.21 323.384 763.321 323.418C764.691 330.458 767.616 336.118 772.552 340.712C775.597 343.545 779.145 345.591 782.955 347.212C788.793 349.694 794.93 351.003 801.19 351.743C815.559 353.442 829.912 353.454 844.148 350.63C848.633 349.74 853.061 348.404 857.385 346.898C862.67 345.057 867.498 342.271 871.631 338.431C872.772 337.37 873.853 336.768 875.502 337.181C891.561 341.199 907.634 345.162 923.7 349.154C924.266 349.294 924.799 349.57 925.577 349.873C925.232 350.755 925.032 351.552 924.635 352.234C919.439 361.166 911.926 367.654 902.982 372.597C892.929 378.152 882.068 381.404 870.865 383.569C852.389 387.139 833.701 388.092 814.928 387.856C804.164 387.721 793.431 387.046 782.75 385.707C772.055 384.366 761.517 382.272 751.36 378.552C742.197 375.196 733.718 370.654 726.497 363.983C717.202 355.395 711.716 344.66 709.08 332.429C705.74 316.931 705.968 301.469 710.109 286.12C714.576 269.566 724.548 257.398 739.541 249.241C749.855 243.63 760.988 240.5 772.456 238.4C786.052 235.909 799.8 235.063 813.587 234.816C826.766 234.58 839.936 234.905 853.071 236.115C866.226 237.327 879.229 239.339 891.649 244.074C894.914 245.32 898.124 246.772 901.218 248.398C914.283 255.267 922.901 265.891 927.394 279.899C930.562 289.774 931.687 299.963 931.893 310.279C931.956 313.421 931.926 316.565 931.893 319.708C931.882 320.757 931.733 321.804 931.623 323.141ZM875.094 293.743C874.771 290.812 873.721 288.91 872.622 287.057C869.41 281.643 864.573 278.143 858.922 275.648C853.683 273.334 848.16 272.022 842.521 271.22C829.05 269.303 815.535 269.293 802.02 270.644C794.903 271.356 787.913 272.762 781.312 275.662C774.18 278.795 768.65 283.593 765.677 290.973C765.382 291.706 765.295 292.523 765.006 293.743C801.779 293.743 838.229 293.744 875.094 293.743Z" fill="#2B7DE1"/>
  <path d="M1171.07 238.529C1171.15 239.86 1171.27 241.038 1171.27 242.216C1171.29 251.887 1171.2 261.559 1171.34 271.228C1171.37 273.841 1170.56 275.342 1168.22 276.639C1142.43 290.944 1116.7 305.361 1090.96 319.748C1075.56 328.357 1060.15 336.963 1044.75 345.58C1043.94 346.031 1043.19 346.577 1041.65 347.573C1047.28 347.928 1052.04 347.722 1056.79 347.76C1061.51 347.797 1066.22 347.768 1070.94 347.768C1075.77 347.768 1080.61 347.768 1085.44 347.768C1090.28 347.768 1095.12 347.768 1099.95 347.768C1104.67 347.768 1109.38 347.768 1114.09 347.768C1118.93 347.768 1123.77 347.768 1128.6 347.768C1133.44 347.768 1138.27 347.768 1143.11 347.768C1147.82 347.768 1152.54 347.768 1157.25 347.768C1162.07 347.768 1166.89 347.768 1171.77 347.768C1172.01 348.787 1172.32 349.468 1172.32 350.15C1172.35 360.788 1172.34 371.426 1172.33 382.064C1172.33 382.649 1172.18 383.233 1172.08 384.027C1171.21 384.181 1170.42 384.379 1169.62 384.448C1168.78 384.52 1167.93 384.47 1167.09 384.47C1097.7 384.47 1028.31 384.47 958.92 384.47C957.369 384.47 955.819 384.47 953.942 384.47C953.837 382.965 953.686 381.801 953.684 380.636C953.665 370.119 953.758 359.601 953.614 349.085C953.578 346.402 954.592 345.029 956.876 343.77C996.893 321.725 1036.86 299.596 1076.84 277.483C1078.52 276.558 1080.18 275.614 1082.55 274.283C1081.2 274.01 1080.59 273.814 1079.98 273.781C1078.9 273.722 1077.81 273.761 1076.72 273.761C1038.16 273.761 999.594 273.763 961.031 273.755C959.488 273.754 957.944 273.658 956.488 273.61C955.774 270.302 955.778 241.748 956.425 238.649C956.498 238.58 956.576 238.48 956.677 238.419C956.777 238.36 956.899 238.318 957.015 238.309C957.856 238.244 958.697 238.139 959.538 238.139C1029.53 238.148 1099.52 238.165 1169.52 238.191C1169.87 238.192 1170.22 238.338 1171.07 238.529Z" fill="#2B7DE1"/>
  <path d="M798.152 109.356C799.723 109.239 800.771 109.09 801.818 109.094C812.092 109.134 822.366 109.151 832.64 109.27C846.784 109.433 859.841 113.284 871.588 121.222C874.175 122.971 876.557 125.072 878.839 127.218C895.309 142.7 911.728 158.238 928.169 173.751C929.035 174.569 929.956 175.328 931.01 176.252C931.948 175.463 932.791 174.822 933.557 174.099C971.362 138.425 1009.16 102.744 1046.96 67.0624C1051.79 62.4987 1056.69 57.997 1061.45 53.3534C1072.11 42.9441 1084.4 34.8844 1097.63 28.1995C1115.27 19.2786 1133.97 13.7266 1153.6 11.3606C1158.38 10.7845 1163.17 10.3125 1167.89 9.79993C1168.58 11.388 1167.41 11.7903 1166.8 12.3688C1155.42 23.2099 1144.02 34.0284 1132.62 44.8422C1072 102.321 1011.38 159.796 950.768 217.279C945.417 222.354 940.124 227.489 934.786 232.577C933.751 233.564 932.631 234.463 931.612 235.348C928.853 233.646 800.778 112.817 798.152 109.356Z" fill="#2B7DE1"/>
  <path d="M295.554 237.659C299.431 236.865 343.182 236.915 346.335 237.658C347.628 245.328 347.877 253.267 349.11 261.264C349.771 260.946 350.151 260.867 350.383 260.637C358.303 252.822 367.979 247.937 378.239 244.099C392.137 238.901 406.542 235.895 421.31 234.638C425.882 234.248 430.477 234.122 435.063 233.911C435.764 233.879 436.473 234.041 437.508 234.148C438.052 237.903 437.709 241.623 437.77 245.315C437.831 249.062 437.783 252.811 437.783 256.558C437.783 260.306 437.792 264.054 437.781 267.801C437.769 271.526 437.737 275.251 437.713 279.253C436.191 279.355 435.013 279.487 433.833 279.503C423.314 279.648 412.807 280.004 402.354 281.294C391.897 282.584 381.548 284.373 371.636 288.114C366.403 290.09 361.503 292.639 357.199 296.296C355.029 298.14 354.022 300.164 354.036 303.146C354.153 328.291 354.103 353.438 354.103 378.583C354.103 380.015 354.103 381.446 354.103 383.112C352.89 383.284 351.976 383.524 351.061 383.525C333.653 383.548 316.244 383.547 298.835 383.53C297.903 383.529 296.971 383.341 295.903 383.225C295.771 382.235 295.568 381.421 295.567 380.608C295.552 333.001 295.554 285.394 295.554 237.659Z" fill="white"/>
</svg>
